<?xml version="1.0" encoding="iso-8859-1"?>
<!-- Uploaded to: SVG Repo, www.svgrepo.com, Generator: SVG Repo Mixer Tools -->
<svg version="1.1" id="Layer_1" xmlns="http://www.w3.org/2000/svg" xmlns:xlink="http://www.w3.org/1999/xlink" 
	 viewBox="0 0 512 512" xml:space="preserve">
<g>
	<path style="fill:#E6E7E8;" d="M360.49,344.816v62.377c-51.307-2.612-55.694-20.581-115.041-20.581
		c-3.653,0-7.102,0.102-10.347,0.204v-0.204v-41.796H360.49z"/>
	<rect x="235.102" y="271.673" style="fill:#E6E7E8;" width="125.388" height="31.347"/>
	<rect x="235.102" y="198.531" style="fill:#E6E7E8;" width="125.388" height="31.347"/>
</g>
<g>
	<rect x="235.102" y="156.735" style="fill:#808285;" width="125.388" height="41.796"/>
	<rect x="235.102" y="229.878" style="fill:#808285;" width="125.388" height="41.796"/>
	<rect x="235.102" y="303.02" style="fill:#808285;" width="125.388" height="41.796"/>
</g>
<path style="fill:#31C0D8;" d="M360.49,407.194c4.072,0.214,8.357,0.317,13.061,0.317c63.949,0,63.949-20.898,128-20.898v78.367
	H10.449v-78.367c63.949,0,43.051,20.898,107.102,20.898c60.285,0,63.735-18.602,117.551-20.694
	c3.244-0.102,6.694-0.204,10.347-0.204C304.796,386.612,309.183,404.581,360.49,407.194z"/>
<g>
	<path style="fill:#E6E7E8;" d="M501.551,198.531v188.082c-64.051,0-64.051,20.898-128,20.898c-4.704,0-8.989-0.102-13.061-0.317
		v-62.377V303.02v-31.347v-41.796v-31.347v-41.796h94.041h47.02V198.531z"/>
	<path style="fill:#E6E7E8;" d="M10.449,198.531v-41.796h224.653v41.796v31.347v41.796v31.347v41.796v41.796v0.204
		c-53.816,2.092-57.266,20.694-117.551,20.694c-64.051,0-43.153-20.898-107.102-20.898V198.531z"/>
</g>
<g>
	<path style="fill:#231F20;" d="M501.551,146.286H464.98V47.02c0-5.77-4.679-10.449-10.449-10.449h-62.694
		c-1.913,0-3.612,0.101-5.225,0.31v-0.31H266.449c-23.046,0-41.796,18.75-41.796,41.796v67.918H10.449
		C4.678,146.286,0,150.964,0,156.735v229.878v78.367c0,5.77,4.678,10.449,10.449,10.449h491.102c5.77,0,10.449-4.679,10.449-10.449
		v-78.367V156.735C512,150.964,507.321,146.286,501.551,146.286z M491.102,188.082h-94.041v20.898h94.041v167.38
		c-26.963,1.022-42.136,5.971-56.852,10.776c-15.634,5.105-30.4,9.927-60.699,9.927c-0.892,0-1.753-0.007-2.612-0.015v-52.231
		V303.02v-31.347v-41.796v-31.347v-31.347h120.163V188.082z M350.041,167.184v20.898h-104.49v-20.898H350.041z M245.551,282.122
		h104.49v10.449h-104.49V282.122z M245.551,208.98h104.49v10.449h-104.49V208.98z M245.551,334.367v-20.898h104.49v20.898H245.551z
		 M245.551,261.224v-20.898h104.49v20.898H245.551z M245.551,355.265h104.49v40.618c-15.766-1.735-26.29-5.16-37.305-8.753
		c-16.51-5.385-33.585-10.955-67.185-10.967V355.265z M388.655,57.707c0.854-0.162,1.864-0.237,3.182-0.237h52.245v88.816h-73.143
		V78.367c0-10.145,7.499-19.006,17.442-20.614C388.472,57.739,388.564,57.723,388.655,57.707z M245.551,78.367
		c0-11.523,9.375-20.898,20.898-20.898h89.125c-3.533,6.164-5.533,13.308-5.533,20.898v67.918h-104.49V78.367z M224.653,167.184
		v31.347v31.347v41.796v31.347v41.796v32.17c-20.698,1.737-33.755,6.001-46.431,10.144c-15.626,5.107-30.386,9.931-60.671,9.931
		c-29.639,0-39.065-4.57-49.044-9.408c-10.381-5.033-21.092-10.216-47.609-11.286V208.98h177.633v-20.898H20.898v-20.898H224.653z
		 M491.102,454.531H20.898v-57.252c21.543,0.961,29.808,4.968,38.492,9.178c11.12,5.391,23.723,11.502,58.161,11.502
		c33.614,0,50.669-5.575,67.162-10.965c13.863-4.531,26.955-8.811,50.717-9.733c3.333-0.106,6.608-0.199,10.018-0.199
		c30.346,0,45.141,4.826,60.805,9.937c14.1,4.6,28.68,9.357,53.687,10.631c4.229,0.223,8.681,0.33,13.61,0.33
		c33.625,0,50.686-5.571,67.186-10.959c13.745-4.488,26.817-8.757,50.365-9.731v57.26H491.102z"/>
	<rect x="36.571" y="229.878" style="fill:#231F20;" width="20.898" height="20.898"/>
	<rect x="78.367" y="229.878" style="fill:#231F20;" width="20.898" height="20.898"/>
	<rect x="120.163" y="229.878" style="fill:#231F20;" width="20.898" height="20.898"/>
	<rect x="161.959" y="229.878" style="fill:#231F20;" width="20.898" height="20.898"/>
	<rect x="412.735" y="229.878" style="fill:#231F20;" width="20.898" height="20.898"/>
	<rect x="454.531" y="229.878" style="fill:#231F20;" width="20.898" height="20.898"/>
</g>
</svg>